<svg xmlns="http://www.w3.org/2000/svg" viewBox="0 0 726.31 892"><defs><style>.cls-1{fill:#fff;}</style></defs><title>Asset 1</title><g id="Layer_2" data-name="Layer 2"><g id="Layer_1-2" data-name="Layer 1"><path class="cls-1" d="M606.59,473.89c1.26,135,118.42,179.91,119.72,180.48-1,3.17-18.72,64-61.73,126.87C627.4,835.58,588.82,889.72,528,890.84c-59.72,1.1-78.93-35.42-147.21-35.42s-89.61,34.3-146.15,36.52C176,894.16,131.32,833.18,93.84,779,17.24,668.3-41.3,466.1,37.3,329.62c39.05-67.78,108.83-110.7,184.57-111.8,57.62-1.1,112,38.76,147.22,38.76s101.28-47.93,170.76-40.89c29.08,1.21,110.72,11.75,163.14,88.48-4.22,2.62-97.41,56.87-96.4,169.72"/><path class="cls-1" d="M494.34,142.42c31.15-37.7,52.12-90.19,46.4-142.42-44.9,1.8-99.2,29.92-131.4,67.6C380.48,101,355.2,154.39,362,205.58c50.05,3.87,101.17-25.43,132.32-63.16"/></g></g></svg>