<svg xmlns="http://www.w3.org/2000/svg" viewBox="0 0 24 24"><path d="M12.786 12.316a.5.5 0 0 0-.152-.355L2.705 2.352a.5.5 0 0 0-.822.201 1.926 1.926 0 0 0-.106.614v18.151c0 .376.106.729.314 1.049a.502.502 0 0 0 .773.082l9.775-9.775a.505.505 0 0 0 .147-.358zM13.352 11.265a.498.498 0 0 0 .702-.005l2.525-2.525a.502.502 0 0 0-.113-.792L4.624 1.458a.502.502 0 0 0-.632.158.502.502 0 0 0 .061.649l9.299 9zM21.217 10.544l-2.924-1.602a.503.503 0 0 0-.594.085l-2.915 2.915a.5.5 0 0 0 .006.712l2.906 2.813a.503.503 0 0 0 .588.079l2.933-1.606c.63-.345 1.006-.98 1.006-1.698s-.376-1.353-1.006-1.698zM14.071 13.351a.5.5 0 0 0-.701.006l-8.32 8.32a.498.498 0 0 0 .594.791l10.804-5.916a.499.499 0 0 0 .107-.798l-2.484-2.403z"/></svg>