<svg xmlns="http://www.w3.org/2000/svg" viewBox="0 0 856 887.09"><defs><style>.cls-1{fill:#fff;}</style></defs><title>Asset 2</title><g id="Layer_2" data-name="Layer 2"><g id="Layer_1-2" data-name="Layer 1"><path class="cls-1" d="M460.91,456.78a20.94,20.94,0,0,0-6.37-14.86L38.85,39.63A20.92,20.92,0,0,0,4.44,48,80.36,80.36,0,0,0,0,73.75V833.66a79.41,79.41,0,0,0,13.15,43.92,21,21,0,0,0,29.09,6.07A20.22,20.22,0,0,0,45.51,881L454.75,471.77A21.15,21.15,0,0,0,460.91,456.78Z"/><path class="cls-1" d="M484.6,412.78a20.85,20.85,0,0,0,29.39-.21L619.71,306.86a21,21,0,0,0-.15-29.72A21.29,21.29,0,0,0,615,273.7L119.19,2.2A20.93,20.93,0,0,0,95.29,36Z"/><path class="cls-1" d="M813.88,382.59,691.47,315.52a21.08,21.08,0,0,0-24.87,3.56l-122,122a20.93,20.93,0,0,0,0,29.61l.21.2L666.47,588.7A21.06,21.06,0,0,0,691.09,592l122.79-67.24a81.05,81.05,0,0,0,0-142.18Z"/><path class="cls-1" d="M514.71,500.11a21,21,0,0,0-29.35.25L137,848.69a20.85,20.85,0,0,0,24.87,33.12L614.22,634.13a20.89,20.89,0,0,0,4.48-33.41Z"/></g></g></svg>